<svg viewBox="0 0 180 48" xmlns="http://www.w3.org/2000/svg" width="720" height="192">
  <rect width="180" height="48" fill="#0a0a0f"/>
  <defs>
    <linearGradient id="nsfGrad" x1="0" y1="0" x2="1" y2="1">
      <stop offset="0%" stop-color="#2563eb"/>
      <stop offset="100%" stop-color="#7c3aed"/>
    </linearGradient>
    <linearGradient id="nsfGradH" x1="0" y1="0" x2="1" y2="0">
      <stop offset="0%" stop-color="#2563eb"/>
      <stop offset="100%" stop-color="#7c3aed"/>
    </linearGradient>
  </defs>
  <g transform="translate(2, 2)">
    <path d="M20,3 C20,3 8,18 8,27 A12,12 0 0 0 32,27 C32,18 20,3 20,3 Z" fill="url(#nsfGrad)" opacity="0.15"/>
    <path d="M20,3 C20,3 8,18 8,27 A12,12 0 0 0 32,27 C32,18 20,3 20,3 Z" fill="none" stroke="url(#nsfGrad)" stroke-width="2" stroke-linejoin="round"/>
    <line x1="11" y1="12" x2="29" y2="36" stroke="url(#nsfGrad)" stroke-width="2.5" stroke-linecap="round"/>
  </g>
  <g transform="translate(44, 0)">
    <text x="0" y="26" fill="#f0f0f5" font-family="Inter, -apple-system, sans-serif" font-weight="800" font-size="22" letter-spacing="-0.5">NO SWEAT</text>
    <rect x="0" y="30" width="40" height="2.5" rx="1.25" fill="url(#nsfGradH)"/>
    <text x="0" y="43" fill="#f0f0f5" font-family="Inter, -apple-system, sans-serif" font-weight="500" font-size="9" letter-spacing="4" opacity="0.5">FITNESS</text>
  </g>
</svg>
